<?xml version="1.0" encoding="UTF-8" standalone="no"?>
<!DOCTYPE svg PUBLIC "-//W3C//DTD SVG 1.1//EN"
 "http://www.w3.org/Graphics/SVG/1.1/DTD/svg11.dtd">
<!-- Generated by graphviz version 2.36.0 (20140111.2315)
 -->
<!-- Title: %3 Pages: 1 -->
<svg width="331pt" height="110pt"
 viewBox="0.00 0.00 331.00 110.00" xmlns="http://www.w3.org/2000/svg" xmlns:xlink="http://www.w3.org/1999/xlink">
<g id="graph0" class="graph" transform="scale(1 1) rotate(0) translate(4 106)">
<title>%3</title>
<polygon fill="white" stroke="none" points="-4,4 -4,-106 327,-106 327,4 -4,4"/>
<!-- 1 -->
<g id="node1" class="node"><title>1</title>
<ellipse fill="yellow" stroke="black" cx="27" cy="-18" rx="27" ry="18"/>
<text text-anchor="middle" x="27" y="-14.3" font-family="Times,serif" font-size="14.00">10</text>
</g>
<!-- 2 -->
<g id="node2" class="node"><title>2</title>
<ellipse fill="yellow" stroke="black" cx="153" cy="-18" rx="27" ry="18"/>
<text text-anchor="middle" x="153" y="-14.3" font-family="Times,serif" font-size="14.00">01</text>
</g>
<!-- 1&#45;&#45;2 -->
<g id="edge1" class="edge"><title>1&#45;&#45;2</title>
<path fill="none" stroke="black" d="M54.03,-18C71.928,-18 95.651,-18 115.38,-18"/>
<polygon fill="black" stroke="black" points="115.58,-21.5001 125.58,-18 115.58,-14.5001 115.58,-21.5001"/>
</g>
<!-- 4 -->
<g id="node3" class="node"><title>4</title>
<ellipse fill="yellow" stroke="black" cx="170" cy="-84" rx="27" ry="18"/>
<text text-anchor="middle" x="170" y="-80.3" font-family="Times,serif" font-size="14.00">11</text>
</g>
<!-- 5 -->
<g id="node4" class="node"><title>5</title>
<ellipse fill="yellow" stroke="black" cx="296" cy="-84" rx="27" ry="18"/>
<text text-anchor="middle" x="296" y="-80.3" font-family="Times,serif" font-size="14.00">00</text>
</g>
<!-- 4&#45;&#45;5 -->
<g id="edge2" class="edge"><title>4&#45;&#45;5</title>
<path fill="none" stroke="black" d="M197.03,-84C214.93,-84 238.65,-84 258.38,-84"/>
<polygon fill="black" stroke="black" points="258.58,-87.5001 268.58,-84 258.58,-80.5001 258.58,-87.5001"/>
</g>
</g>
</svg>
