<?xml version="1.0" encoding="UTF-8" standalone="no"?>
<!DOCTYPE svg PUBLIC "-//W3C//DTD SVG 1.1//EN"
 "http://www.w3.org/Graphics/SVG/1.1/DTD/svg11.dtd">
<!-- Generated by graphviz version 2.36.0 (20140111.2315)
 -->
<!-- Title: %3 Pages: 1 -->
<svg width="183pt" height="164pt"
 viewBox="0.00 0.00 182.70 163.74" xmlns="http://www.w3.org/2000/svg" xmlns:xlink="http://www.w3.org/1999/xlink">
<g id="graph0" class="graph" transform="scale(1 1) rotate(0) translate(4 159.74)">
<title>%3</title>
<polygon fill="white" stroke="none" points="-4,4 -4,-159.74 178.703,-159.74 178.703,4 -4,4"/>
<!-- 1 -->
<g id="node1" class="node"><title>1</title>
<ellipse fill="red" stroke="black" cx="34.5" cy="-18" rx="34.5" ry="18"/>
<text text-anchor="middle" x="34.5" y="-14.3" font-family="Times,serif" font-size="14.00">Masha</text>
</g>
<!-- 2 -->
<g id="node2" class="node"><title>2</title>
<ellipse fill="green" stroke="black" cx="34.5" cy="-137.74" rx="32.5" ry="18"/>
<text text-anchor="middle" x="34.5" y="-134.04" font-family="Times,serif" font-size="14.00">Varya</text>
</g>
<!-- 1&#45;&#45;2 -->
<g id="edge1" class="edge"><title>1&#45;&#45;2</title>
<path fill="none" stroke="black" d="M34.5,-46.213C34.5,-65.202 34.5,-90.155 34.5,-109.21"/>
<polygon fill="black" stroke="black" points="38.0001,-46.186 34.5,-36.186 31.0001,-46.186 38.0001,-46.186"/>
<polygon fill="black" stroke="black" points="31.0001,-109.39 34.5,-119.39 38.0001,-109.39 31.0001,-109.39"/>
</g>
<!-- 3 -->
<g id="node3" class="node"><title>3</title>
<ellipse fill="blue" stroke="black" cx="138.203" cy="-77.872" rx="36.5" ry="18"/>
<text text-anchor="middle" x="138.203" y="-74.172" font-family="Times,serif" font-size="14.00">Sashko</text>
</g>
<!-- 1&#45;&#45;3 -->
<g id="edge2" class="edge"><title>1&#45;&#45;3</title>
<path fill="none" stroke="black" d="M66.482,-36.465C78.891,-43.629 93.09,-51.827 105.563,-59.027"/>
<polygon fill="black" stroke="black" points="68.1822,-33.4052 57.772,-31.436 64.6821,-39.4673 68.1822,-33.4052"/>
<polygon fill="black" stroke="black" points="103.873,-62.0929 114.283,-64.065 107.375,-56.0318 103.873,-62.0929"/>
</g>
<!-- 2&#45;&#45;3 -->
<g id="edge3" class="edge"><title>2&#45;&#45;3</title>
<path fill="none" stroke="black" d="M65.777,-119.69C78.309,-112.45 92.756,-104.11 105.433,-96.79"/>
<polygon fill="black" stroke="black" points="63.9159,-116.723 57.001,-124.75 67.4124,-122.787 63.9159,-116.723"/>
<polygon fill="black" stroke="black" points="107.391,-99.7009 114.303,-91.671 103.892,-93.6381 107.391,-99.7009"/>
</g>
</g>
</svg>
