<?xml version="1.0" encoding="UTF-8" standalone="no"?>
<!DOCTYPE svg PUBLIC "-//W3C//DTD SVG 1.1//EN"
 "http://www.w3.org/Graphics/SVG/1.1/DTD/svg11.dtd">
<!-- Generated by graphviz version 2.36.0 (20140111.2315)
 -->
<!-- Title: %3 Pages: 1 -->
<svg width="464pt" height="252pt"
 viewBox="0.00 0.00 464.32 252.40" xmlns="http://www.w3.org/2000/svg" xmlns:xlink="http://www.w3.org/1999/xlink">
<g id="graph0" class="graph" transform="scale(1 1) rotate(0) translate(4 248.4)">
<title>%3</title>
<polygon fill="white" stroke="none" points="-4,4 -4,-248.4 460.32,-248.4 460.32,4 -4,4"/>
<!-- 1 -->
<g id="node1" class="node"><title>1</title>
<ellipse fill="yellow" stroke="black" cx="207.48" cy="-18" rx="27" ry="18"/>
<text text-anchor="middle" x="207.48" y="-14.3" font-family="Times,serif" font-size="14.00">100</text>
</g>
<!-- 6 -->
<g id="node2" class="node"><title>6</title>
<ellipse fill="yellow" stroke="black" cx="87.161" cy="-18" rx="27" ry="18"/>
<text text-anchor="middle" x="87.161" y="-14.3" font-family="Times,serif" font-size="14.00">101</text>
</g>
<!-- 1&#45;&#45;6 -->
<g id="edge1" class="edge"><title>1&#45;&#45;6</title>
<path fill="none" stroke="black" d="M180.48,-18C164.03,-18 142.77,-18 124.7,-18"/>
<polygon fill="black" stroke="black" points="124.49,-14.5001 114.49,-18 124.49,-21.5001 124.49,-14.5001"/>
</g>
<!-- 3 -->
<g id="node3" class="node"><title>3</title>
<ellipse fill="yellow" stroke="black" cx="27" cy="-122.2" rx="27" ry="18"/>
<text text-anchor="middle" x="27" y="-118.5" font-family="Times,serif" font-size="14.00">001</text>
</g>
<!-- 6&#45;&#45;3 -->
<g id="edge2" class="edge"><title>6&#45;&#45;3</title>
<path fill="none" stroke="black" d="M77.226,-35.207C67.59,-51.898 52.848,-77.432 41.824,-96.526"/>
<polygon fill="black" stroke="black" points="38.7211,-94.9003 36.749,-105.31 44.7822,-98.4022 38.7211,-94.9003"/>
</g>
<!-- 5 -->
<g id="node4" class="node"><title>5</title>
<ellipse fill="yellow" stroke="black" cx="87.161" cy="-226.4" rx="27" ry="18"/>
<text text-anchor="middle" x="87.161" y="-222.7" font-family="Times,serif" font-size="14.00">011</text>
</g>
<!-- 3&#45;&#45;5 -->
<g id="edge3" class="edge"><title>3&#45;&#45;5</title>
<path fill="none" stroke="black" d="M36.934,-139.41C46.571,-156.1 61.313,-181.63 72.337,-200.73"/>
<polygon fill="black" stroke="black" points="69.3804,-202.609 77.411,-209.52 75.4429,-199.11 69.3804,-202.609"/>
</g>
<!-- 2 -->
<g id="node5" class="node"><title>2</title>
<ellipse fill="yellow" stroke="black" cx="207.48" cy="-226.4" rx="27" ry="18"/>
<text text-anchor="middle" x="207.48" y="-222.7" font-family="Times,serif" font-size="14.00">010</text>
</g>
<!-- 5&#45;&#45;2 -->
<g id="edge6" class="edge"><title>5&#45;&#45;2</title>
<path fill="none" stroke="black" d="M114.16,-226.4C130.61,-226.4 151.87,-226.4 169.94,-226.4"/>
<polygon fill="black" stroke="black" points="170.15,-229.9 180.15,-226.4 170.15,-222.9 170.15,-229.9"/>
</g>
<!-- 4 -->
<g id="node6" class="node"><title>4</title>
<ellipse fill="yellow" stroke="black" cx="267.64" cy="-122.2" rx="27" ry="18"/>
<text text-anchor="middle" x="267.64" y="-118.5" font-family="Times,serif" font-size="14.00">110</text>
</g>
<!-- 2&#45;&#45;4 -->
<g id="edge4" class="edge"><title>2&#45;&#45;4</title>
<path fill="none" stroke="black" d="M217.42,-209.2C227.05,-192.5 241.79,-166.97 252.82,-147.88"/>
<polygon fill="black" stroke="black" points="255.925,-149.501 257.89,-139.09 249.862,-146.004 255.925,-149.501"/>
</g>
<!-- 4&#45;&#45;1 -->
<g id="edge5" class="edge"><title>4&#45;&#45;1</title>
<path fill="none" stroke="black" d="M257.71,-104.99C248.07,-88.303 233.33,-62.769 222.31,-43.676"/>
<polygon fill="black" stroke="black" points="225.264,-41.7934 217.23,-34.887 219.204,-45.2963 225.264,-41.7934"/>
</g>
<!-- 7 -->
<g id="node7" class="node"><title>7</title>
<ellipse fill="yellow" stroke="black" cx="303.32" cy="-41.201" rx="27" ry="18"/>
<text text-anchor="middle" x="303.32" y="-37.501" font-family="Times,serif" font-size="14.00">111</text>
</g>
<!-- 8 -->
<g id="node8" class="node"><title>8</title>
<ellipse fill="yellow" stroke="black" cx="429.32" cy="-41.201" rx="27" ry="18"/>
<text text-anchor="middle" x="429.32" y="-37.501" font-family="Times,serif" font-size="14.00">000</text>
</g>
<!-- 7&#45;&#45;8 -->
<g id="edge7" class="edge"><title>7&#45;&#45;8</title>
<path fill="none" stroke="black" d="M340.51,-41.201C356.65,-41.201 375.52,-41.201 391.71,-41.201"/>
<polygon fill="black" stroke="black" points="340.35,-37.7011 330.35,-41.201 340.35,-44.7011 340.35,-37.7011"/>
<polygon fill="black" stroke="black" points="391.9,-44.7011 401.9,-41.201 391.9,-37.7011 391.9,-44.7011"/>
</g>
</g>
</svg>
