<?xml version="1.0" encoding="UTF-8" standalone="no"?>
<!DOCTYPE svg PUBLIC "-//W3C//DTD SVG 1.1//EN"
 "http://www.w3.org/Graphics/SVG/1.1/DTD/svg11.dtd">
<!-- Generated by graphviz version 2.36.0 (20140111.2315)
 -->
<!-- Title: %3 Pages: 1 -->
<svg width="224pt" height="206pt"
 viewBox="0.00 0.00 224.08 206.10" xmlns="http://www.w3.org/2000/svg" xmlns:xlink="http://www.w3.org/1999/xlink">
<g id="graph0" class="graph" transform="scale(1 1) rotate(0) translate(4 202.1)">
<title>%3</title>
<polygon fill="white" stroke="none" points="-4,4 -4,-202.1 220.08,-202.1 220.08,4 -4,4"/>
<!-- 1 -->
<g id="node1" class="node"><title>1</title>
<ellipse fill="yellow" stroke="black" cx="27" cy="-18" rx="27" ry="18"/>
<text text-anchor="middle" x="27" y="-14.3" font-family="Times,serif" font-size="14.00">100</text>
</g>
<!-- 2 -->
<g id="node2" class="node"><title>2</title>
<ellipse fill="yellow" stroke="black" cx="27" cy="-122.2" rx="27" ry="18"/>
<text text-anchor="middle" x="27" y="-118.5" font-family="Times,serif" font-size="14.00">010</text>
</g>
<!-- 1&#45;&#45;2 -->
<g id="edge1" class="edge"><title>1&#45;&#45;2</title>
<path fill="none" stroke="black" d="M27,-36.15C27,-52.041 27,-75.393 27,-93.763"/>
<polygon fill="black" stroke="black" points="23.5001,-93.91 27,-103.91 30.5001,-93.91 23.5001,-93.91"/>
</g>
<!-- 3 -->
<g id="node3" class="node"><title>3</title>
<ellipse fill="yellow" stroke="black" cx="117.24" cy="-70.101" rx="27" ry="18"/>
<text text-anchor="middle" x="117.24" y="-66.401" font-family="Times,serif" font-size="14.00">001</text>
</g>
<!-- 2&#45;&#45;3 -->
<g id="edge2" class="edge"><title>2&#45;&#45;3</title>
<path fill="none" stroke="black" d="M47.477,-110.38C59.392,-103.5 74.614,-94.711 87.797,-87.1"/>
<polygon fill="black" stroke="black" points="89.6216,-90.0881 96.532,-82.057 86.1217,-84.0258 89.6216,-90.0881"/>
</g>
<!-- 3&#45;&#45;1 -->
<g id="edge3" class="edge"><title>3&#45;&#45;1</title>
<path fill="none" stroke="black" d="M96.764,-58.278C84.849,-51.399 69.627,-42.611 56.444,-34.999"/>
<polygon fill="black" stroke="black" points="58.1184,-31.9243 47.708,-29.956 54.6188,-37.9867 58.1184,-31.9243"/>
</g>
<!-- 4 -->
<g id="node4" class="node"><title>4</title>
<ellipse fill="yellow" stroke="black" cx="135.08" cy="-126.1" rx="27" ry="18"/>
<text text-anchor="middle" x="135.08" y="-122.4" font-family="Times,serif" font-size="14.00">110</text>
</g>
<!-- 5 -->
<g id="node5" class="node"><title>5</title>
<ellipse fill="yellow" stroke="black" cx="189.08" cy="-18.101" rx="27" ry="18"/>
<text text-anchor="middle" x="189.08" y="-14.401" font-family="Times,serif" font-size="14.00">011</text>
</g>
<!-- 6 -->
<g id="node6" class="node"><title>6</title>
<ellipse fill="yellow" stroke="black" cx="189.08" cy="-72.101" rx="27" ry="18"/>
<text text-anchor="middle" x="189.08" y="-68.401" font-family="Times,serif" font-size="14.00">101</text>
</g>
<!-- 7 -->
<g id="node7" class="node"><title>7</title>
<ellipse fill="yellow" stroke="black" cx="189.08" cy="-180.1" rx="27" ry="18"/>
<text text-anchor="middle" x="189.08" y="-176.4" font-family="Times,serif" font-size="14.00">111</text>
</g>
<!-- 8 -->
<g id="node8" class="node"><title>8</title>
<ellipse fill="yellow" stroke="black" cx="117.08" cy="-180.1" rx="27" ry="18"/>
<text text-anchor="middle" x="117.08" y="-176.4" font-family="Times,serif" font-size="14.00">000</text>
</g>
</g>
</svg>
