<?xml version="1.0" encoding="UTF-8" standalone="no"?>
<!DOCTYPE svg PUBLIC "-//W3C//DTD SVG 1.1//EN"
 "http://www.w3.org/Graphics/SVG/1.1/DTD/svg11.dtd">
<!-- Generated by graphviz version 2.36.0 (20140111.2315)
 -->
<!-- Title: %3 Pages: 1 -->
<svg width="189pt" height="157pt"
 viewBox="0.00 0.00 189.11 157.29" xmlns="http://www.w3.org/2000/svg" xmlns:xlink="http://www.w3.org/1999/xlink">
<g id="graph0" class="graph" transform="scale(1 1) rotate(0) translate(4 153.29)">
<title>%3</title>
<polygon fill="white" stroke="none" points="-4,4 -4,-153.29 185.113,-153.29 185.113,4 -4,4"/>
<!-- 1 -->
<g id="node1" class="node"><title>1</title>
<ellipse fill="red" stroke="black" cx="32.5" cy="-18" rx="32.5" ry="18"/>
<text text-anchor="middle" x="32.5" y="-14.3" font-family="Times,serif" font-size="14.00">Fedko</text>
</g>
<!-- 1&#45;&#45;1 -->
<g id="edge1" class="edge"><title>1&#45;&#45;1</title>
<path fill="none" stroke="black" d="M62.819,-24.74C73.911,-24.922 82.997,-22.676 82.997,-18 82.997,-14.858 78.895,-12.814 72.839,-11.865"/>
<polygon fill="black" stroke="black" points="73.0118,-8.36915 62.819,-11.26 72.5898,-15.3564 73.0118,-8.36915"/>
</g>
<!-- 2 -->
<g id="node2" class="node"><title>2</title>
<ellipse fill="green" stroke="black" cx="32.5" cy="-131.29" rx="31.3957" ry="18"/>
<text text-anchor="middle" x="32.5" y="-127.59" font-family="Times,serif" font-size="14.00">Klym</text>
</g>
<!-- 1&#45;&#45;2 -->
<g id="edge2" class="edge"><title>1&#45;&#45;2</title>
<path fill="none" stroke="black" d="M32.5,-46.423C32.5,-63.743 32.5,-85.793 32.5,-103.08"/>
<polygon fill="black" stroke="black" points="36.0001,-46.203 32.5,-36.203 29.0001,-46.203 36.0001,-46.203"/>
<polygon fill="black" stroke="black" points="29.0001,-103.14 32.5,-113.14 36.0001,-103.14 29.0001,-103.14"/>
</g>
<!-- 3 -->
<g id="node3" class="node"><title>3</title>
<ellipse fill="blue" stroke="black" cx="130.613" cy="-74.647" rx="32.5" ry="18"/>
<text text-anchor="middle" x="130.613" y="-70.947" font-family="Times,serif" font-size="14.00">Varya</text>
</g>
<!-- 1&#45;&#45;3 -->
<g id="edge3" class="edge"><title>1&#45;&#45;3</title>
<path fill="none" stroke="black" d="M64.244,-36.327C75.384,-42.759 87.891,-49.98 99.019,-56.405"/>
<polygon fill="black" stroke="black" points="65.6663,-33.1068 55.256,-31.138 62.1664,-39.169 65.6663,-33.1068"/>
<polygon fill="black" stroke="black" points="97.5727,-59.6114 107.983,-61.58 101.073,-53.5491 97.5727,-59.6114"/>
</g>
<!-- 2&#45;&#45;2 -->
<g id="edge4" class="edge"><title>2&#45;&#45;2</title>
<path fill="none" stroke="black" d="M61.794,-138.03C72.711,-138.25 81.697,-136 81.697,-131.29 81.697,-128.2 77.827,-126.17 72.081,-125.2"/>
<polygon fill="black" stroke="black" points="71.9921,-121.688 61.794,-124.56 71.5573,-128.674 71.9921,-121.688"/>
</g>
<!-- 2&#45;&#45;3 -->
<g id="edge5" class="edge"><title>2&#45;&#45;3</title>
<path fill="none" stroke="black" d="M63.823,-113.21C75.184,-106.65 88.011,-99.244 99.366,-92.689"/>
<polygon fill="black" stroke="black" points="61.6744,-110.409 54.764,-118.44 65.1743,-116.471 61.6744,-110.409"/>
<polygon fill="black" stroke="black" points="101.192,-95.6764 108.103,-87.646 97.6925,-89.6138 101.192,-95.6764"/>
</g>
<!-- 3&#45;&#45;3 -->
<g id="edge6" class="edge"><title>3&#45;&#45;3</title>
<path fill="none" stroke="black" d="M160.933,-81.386C172.023,-81.569 181.113,-79.322 181.113,-74.647 181.113,-71.505 177.013,-69.46 170.953,-68.512"/>
<polygon fill="black" stroke="black" points="171.126,-65.0162 160.933,-67.907 170.704,-72.0034 171.126,-65.0162"/>
</g>
</g>
</svg>
