<?xml version="1.0" encoding="UTF-8" standalone="no"?>
<!DOCTYPE svg PUBLIC "-//W3C//DTD SVG 1.1//EN"
 "http://www.w3.org/Graphics/SVG/1.1/DTD/svg11.dtd">
<!-- Generated by graphviz version 2.36.0 (20140111.2315)
 -->
<!-- Title: %3 Pages: 1 -->
<svg width="283pt" height="404pt"
 viewBox="0.00 0.00 283.13 404.00" xmlns="http://www.w3.org/2000/svg" xmlns:xlink="http://www.w3.org/1999/xlink">
<g id="graph0" class="graph" transform="scale(1 1) rotate(0) translate(4 400)">
<title>%3</title>
<polygon fill="white" stroke="none" points="-4,4 -4,-400 279.134,-400 279.134,4 -4,4"/>
<!-- 0 -->
<g id="node1" class="node"><title>0</title>
<ellipse fill="none" stroke="black" cx="168.134" cy="-18" rx="34.394" ry="18"/>
<text text-anchor="middle" x="168.134" y="-14.3" font-family="Times,serif" font-size="14.00">gene 0</text>
</g>
<!-- 0&#45;&#45;0 -->
<g id="edge1" class="edge"><title>0&#45;&#45;0</title>
<path fill="none" stroke="black" d="M192.474,-30.708C206.754,-33.416 220.134,-29.18 220.134,-18 220.134,-9.5279 212.454,-5.0434 202.514,-4.5464"/>
<polygon fill="black" stroke="black" points="202.187,-1.06092 192.474,-5.2918 202.706,-8.04171 202.187,-1.06092"/>
</g>
<!-- 1 -->
<g id="node2" class="node"><title>1</title>
<ellipse fill="none" stroke="black" cx="88.13" cy="-90" rx="34.394" ry="18"/>
<text text-anchor="middle" x="88.13" y="-86.3" font-family="Times,serif" font-size="14.00">gene 1</text>
</g>
<!-- 1&#45;&#45;0 -->
<g id="edge2" class="edge"><title>1&#45;&#45;0</title>
<path fill="none" stroke="black" d="M112.872,-67.351C122.587,-58.85 133.714,-49.113 143.424,-40.616"/>
<polygon fill="black" stroke="black" points="110.317,-64.9359 105.096,-74.155 114.927,-70.2039 110.317,-64.9359"/>
<polygon fill="black" stroke="black" points="145.964,-43.0439 151.184,-33.824 141.354,-37.7765 145.964,-43.0439"/>
</g>
<!-- 1&#45;&#45;1 -->
<g id="edge3" class="edge"><title>1&#45;&#45;1</title>
<path fill="none" stroke="black" d="M112.47,-102.71C126.754,-105.42 140.134,-101.18 140.134,-90 140.134,-81.528 132.454,-77.043 122.512,-76.546"/>
<polygon fill="black" stroke="black" points="122.183,-73.0607 112.47,-77.292 122.702,-80.0415 122.183,-73.0607"/>
</g>
<!-- 2 -->
<g id="node3" class="node"><title>2</title>
<ellipse fill="none" stroke="black" cx="157.134" cy="-162" rx="34.394" ry="18"/>
<text text-anchor="middle" x="157.134" y="-158.3" font-family="Times,serif" font-size="14.00">gene 2</text>
</g>
<!-- 2&#45;&#45;0 -->
<g id="edge4" class="edge"><title>2&#45;&#45;0</title>
<path fill="none" stroke="black" d="M159.244,-133.68C161.184,-108.6 164.054,-71.627 166.004,-46.493"/>
<polygon fill="black" stroke="black" points="155.738,-133.629 158.454,-143.87 162.717,-134.17 155.738,-133.629"/>
<polygon fill="black" stroke="black" points="169.519,-46.4273 166.794,-36.189 162.54,-45.8921 169.519,-46.4273"/>
</g>
<!-- 2&#45;&#45;1 -->
<g id="edge5" class="edge"><title>2&#45;&#45;1</title>
<path fill="none" stroke="black" d="M135.044,-138.6C127.344,-130.79 118.696,-122.01 110.94,-114.14"/>
<polygon fill="black" stroke="black" points="132.64,-141.147 142.154,-145.81 137.625,-136.232 132.64,-141.147"/>
<polygon fill="black" stroke="black" points="113.062,-111.307 103.55,-106.64 108.076,-116.22 113.062,-111.307"/>
</g>
<!-- 2&#45;&#45;2 -->
<g id="edge6" class="edge"><title>2&#45;&#45;2</title>
<path fill="none" stroke="black" d="M181.474,-174.71C195.754,-177.42 209.134,-173.18 209.134,-162 209.134,-153.53 201.454,-149.04 191.514,-148.55"/>
<polygon fill="black" stroke="black" points="191.19,-145.064 181.474,-149.29 191.704,-152.045 191.19,-145.064"/>
</g>
<!-- 3 -->
<g id="node4" class="node"><title>3</title>
<ellipse fill="none" stroke="black" cx="157.134" cy="-234" rx="34.394" ry="18"/>
<text text-anchor="middle" x="157.134" y="-230.3" font-family="Times,serif" font-size="14.00">gene 3</text>
</g>
<!-- 3&#45;&#45;0 -->
<g id="edge7" class="edge"><title>3&#45;&#45;0</title>
<path fill="none" stroke="black" d="M188.214,-214.32C199.864,-205.51 211.804,-193.87 218.134,-180 239.324,-133.51 208.354,-75.547 186.514,-43.386"/>
<polygon fill="black" stroke="black" points="186.011,-211.591 179.864,-220.22 190.051,-217.308 186.011,-211.591"/>
<polygon fill="black" stroke="black" points="189.256,-41.2008 180.644,-35.03 183.528,-45.2247 189.256,-41.2008"/>
</g>
<!-- 3&#45;&#45;1 -->
<g id="edge8" class="edge"><title>3&#45;&#45;1</title>
<path fill="none" stroke="black" d="M135.054,-209.91C127.564,-201.1 119.69,-190.61 114.13,-180 103.882,-160.46 97.154,-136.32 93.114,-118.12"/>
<polygon fill="black" stroke="black" points="132.509,-212.315 141.754,-217.49 137.754,-207.679 132.509,-212.315"/>
<polygon fill="black" stroke="black" points="96.5052,-117.236 91.04,-108.16 89.6522,-118.664 96.5052,-117.236"/>
</g>
<!-- 3&#45;&#45;2 -->
<g id="edge9" class="edge"><title>3&#45;&#45;2</title>
<path fill="none" stroke="black" d="M157.134,-205.67C157.134,-200.69 157.134,-195.49 157.134,-190.51"/>
<polygon fill="black" stroke="black" points="153.634,-205.7 157.134,-215.7 160.634,-205.7 153.634,-205.7"/>
<polygon fill="black" stroke="black" points="160.634,-190.1 157.134,-180.1 153.634,-190.1 160.634,-190.1"/>
</g>
<!-- 3&#45;&#45;3 -->
<g id="edge10" class="edge"><title>3&#45;&#45;3</title>
<path fill="none" stroke="black" d="M181.474,-246.71C195.754,-249.42 209.134,-245.18 209.134,-234 209.134,-225.53 201.454,-221.04 191.514,-220.55"/>
<polygon fill="black" stroke="black" points="191.19,-217.064 181.474,-221.29 191.704,-224.045 191.19,-217.064"/>
</g>
<!-- 4 -->
<g id="node5" class="node"><title>4</title>
<ellipse fill="none" stroke="black" cx="86.13" cy="-306" rx="34.394" ry="18"/>
<text text-anchor="middle" x="86.13" y="-302.3" font-family="Times,serif" font-size="14.00">gene 4</text>
</g>
<!-- 4&#45;&#45;0 -->
<g id="edge11" class="edge"><title>4&#45;&#45;0</title>
<path fill="none" stroke="black" d="M70.986,-279.85C45.803,-234.42 2.132,-137.35 45.13,-72 62.774,-45.185 97.155,-31.878 125.093,-25.308"/>
<polygon fill="black" stroke="black" points="68.0521,-281.771 76.041,-288.73 74.1355,-278.308 68.0521,-281.771"/>
<polygon fill="black" stroke="black" points="126.006,-28.692 135.054,-23.18 124.543,-21.8465 126.006,-28.692"/>
</g>
<!-- 4&#45;&#45;1 -->
<g id="edge12" class="edge"><title>4&#45;&#45;1</title>
<path fill="none" stroke="black" d="M86.385,-277.71C86.768,-236.65 87.49,-159.42 87.874,-118.33"/>
<polygon fill="black" stroke="black" points="82.8839,-277.818 86.29,-287.85 89.8836,-277.883 82.8839,-277.818"/>
<polygon fill="black" stroke="black" points="91.3747,-118.263 87.969,-108.23 84.375,-118.197 91.3747,-118.263"/>
</g>
<!-- 4&#45;&#45;2 -->
<g id="edge13" class="edge"><title>4&#45;&#45;2</title>
<path fill="none" stroke="black" d="M91.836,-277.89C96.333,-259.69 103.616,-235.56 114.13,-216 119.799,-205.45 127.694,-194.97 135.174,-186.15"/>
<polygon fill="black" stroke="black" points="88.3783,-277.305 89.506,-287.84 95.1939,-278.901 88.3783,-277.305"/>
<polygon fill="black" stroke="black" points="137.875,-188.379 141.854,-178.56 132.62,-183.754 137.875,-188.379"/>
</g>
<!-- 4&#45;&#45;3 -->
<g id="edge14" class="edge"><title>4&#45;&#45;3</title>
<path fill="none" stroke="black" d="M108.961,-282.49C117.169,-274.4 126.414,-265.28 134.604,-257.21"/>
<polygon fill="black" stroke="black" points="106.2,-280.297 101.536,-289.81 111.114,-285.282 106.2,-280.297"/>
<polygon fill="black" stroke="black" points="137.091,-259.673 141.754,-250.16 132.176,-254.689 137.091,-259.673"/>
</g>
<!-- 4&#45;&#45;4 -->
<g id="edge15" class="edge"><title>4&#45;&#45;4</title>
<path fill="none" stroke="black" d="M110.47,-318.71C124.757,-321.42 138.134,-317.18 138.134,-306 138.134,-297.53 130.454,-293.04 120.512,-292.55"/>
<polygon fill="black" stroke="black" points="120.186,-289.064 110.47,-293.29 120.7,-296.046 120.186,-289.064"/>
</g>
<!-- 5 -->
<g id="node6" class="node"><title>5</title>
<ellipse fill="none" stroke="black" cx="166.134" cy="-378" rx="34.394" ry="18"/>
<text text-anchor="middle" x="166.134" y="-374.3" font-family="Times,serif" font-size="14.00">gene 5</text>
</g>
<!-- 5&#45;&#45;0 -->
<g id="edge16" class="edge"><title>5&#45;&#45;0</title>
<path fill="none" stroke="black" d="M194.864,-357.5C227.164,-333.02 275.134,-287.78 275.134,-235 275.134,-235 275.134,-235 275.134,-161 275.134,-108.72 228.294,-63.463 196.594,-38.819"/>
<polygon fill="black" stroke="black" points="192.611,-354.812 186.634,-363.56 196.762,-360.449 192.611,-354.812"/>
<polygon fill="black" stroke="black" points="198.595,-35.9443 188.504,-32.716 194.379,-41.5325 198.595,-35.9443"/>
</g>
<!-- 5&#45;&#45;1 -->
<g id="edge17" class="edge"><title>5&#45;&#45;1</title>
<path fill="none" stroke="black" d="M123.093,-370.69C95.155,-364.12 60.774,-350.81 43.13,-324 0,-258.45 45.95,-161.47 72.308,-116.11"/>
<polygon fill="black" stroke="black" points="122.543,-374.151 133.054,-372.82 124.007,-367.306 122.543,-374.151"/>
<polygon fill="black" stroke="black" points="75.4815,-117.622 77.596,-107.24 69.4689,-114.037 75.4815,-117.622"/>
</g>
<!-- 5&#45;&#45;2 -->
<g id="edge18" class="edge"><title>5&#45;&#45;2</title>
<path fill="none" stroke="black" d="M185.014,-352.66C207.474,-320.56 239.404,-262.66 218.134,-216 211.804,-202.13 199.864,-190.49 188.214,-181.68"/>
<polygon fill="black" stroke="black" points="182.001,-350.854 178.984,-361.01 187.676,-354.952 182.001,-350.854"/>
<polygon fill="black" stroke="black" points="190.051,-178.692 179.864,-175.78 186.011,-184.409 190.051,-178.692"/>
</g>
<!-- 5&#45;&#45;3 -->
<g id="edge19" class="edge"><title>5&#45;&#45;3</title>
<path fill="none" stroke="black" d="M164.394,-349.68C162.804,-324.6 160.464,-287.63 158.874,-262.49"/>
<polygon fill="black" stroke="black" points="160.914,-350.113 165.044,-359.87 167.9,-349.667 160.914,-350.113"/>
<polygon fill="black" stroke="black" points="162.347,-261.95 158.224,-252.19 155.361,-262.391 162.347,-261.95"/>
</g>
<!-- 5&#45;&#45;4 -->
<g id="edge20" class="edge"><title>5&#45;&#45;4</title>
<path fill="none" stroke="black" d="M141.384,-355.35C131.674,-346.85 120.545,-337.11 110.833,-328.62"/>
<polygon fill="black" stroke="black" points="139.331,-358.204 149.164,-362.15 143.938,-352.934 139.331,-358.204"/>
<polygon fill="black" stroke="black" points="112.899,-325.777 103.071,-321.82 108.286,-331.042 112.899,-325.777"/>
</g>
<!-- 5&#45;&#45;5 -->
<g id="edge21" class="edge"><title>5&#45;&#45;5</title>
<path fill="none" stroke="black" d="M190.474,-390.71C204.754,-393.42 218.134,-389.18 218.134,-378 218.134,-369.53 210.454,-365.04 200.514,-364.55"/>
<polygon fill="black" stroke="black" points="200.19,-361.064 190.474,-365.29 200.704,-368.045 200.19,-361.064"/>
</g>
</g>
</svg>
