<?xml version="1.0" encoding="UTF-8" standalone="no"?>
<!DOCTYPE svg PUBLIC "-//W3C//DTD SVG 1.1//EN"
 "http://www.w3.org/Graphics/SVG/1.1/DTD/svg11.dtd">
<!-- Generated by graphviz version 2.36.0 (20140111.2315)
 -->
<!-- Title: %3 Pages: 1 -->
<svg width="1193pt" height="1084pt"
 viewBox="0.00 0.00 1192.55 1084.30" xmlns="http://www.w3.org/2000/svg" xmlns:xlink="http://www.w3.org/1999/xlink">
<g id="graph0" class="graph" transform="scale(1 1) rotate(0) translate(4 1080.3)">
<title>%3</title>
<polygon fill="white" stroke="none" points="-4,4 -4,-1080.3 1188.55,-1080.3 1188.55,4 -4,4"/>
<!-- 110000 -->
<g id="node1" class="node"><title>110000</title>
<ellipse fill="none" stroke="black" cx="182.29" cy="-118.05" rx="37.0935" ry="18"/>
<text text-anchor="middle" x="182.29" y="-114.35" font-family="Times,serif" font-size="14.00">110000</text>
</g>
<!-- 111111 -->
<g id="node2" class="node"><title>111111</title>
<ellipse fill="none" stroke="black" cx="256.9" cy="-154.03" rx="37.0935" ry="18"/>
<text text-anchor="middle" x="256.9" y="-150.33" font-family="Times,serif" font-size="14.00">111111</text>
</g>
<!-- 110000&#45;&#45;111111 -->
<g id="edge1" class="edge"><title>110000&#45;&#45;111111</title>
<path fill="none" stroke="black" d="M208.81,-130.84C212.87,-132.8 217.13,-134.85 221.35,-136.89"/>
<polygon fill="black" stroke="black" points="219.942,-140.097 230.47,-141.29 222.984,-133.792 219.942,-140.097"/>
</g>
<!-- 001110 -->
<g id="node3" class="node"><title>001110</title>
<ellipse fill="none" stroke="black" cx="244.72" cy="-232.18" rx="37.0935" ry="18"/>
<text text-anchor="middle" x="244.72" y="-228.48" font-family="Times,serif" font-size="14.00">001110</text>
</g>
<!-- 111111&#45;&#45;001110 -->
<g id="edge2" class="edge"><title>111111&#45;&#45;001110</title>
<path fill="none" stroke="black" d="M254.08,-172.16C252.6,-181.63 250.76,-193.42 249.11,-204.05"/>
<polygon fill="black" stroke="black" points="245.617,-203.729 247.53,-214.15 252.533,-204.811 245.617,-203.729"/>
</g>
<!-- 110111 -->
<g id="node4" class="node"><title>110111</title>
<ellipse fill="none" stroke="black" cx="233.01" cy="-306.31" rx="37.0935" ry="18"/>
<text text-anchor="middle" x="233.01" y="-302.61" font-family="Times,serif" font-size="14.00">110111</text>
</g>
<!-- 001110&#45;&#45;110111 -->
<g id="edge3" class="edge"><title>001110&#45;&#45;110111</title>
<path fill="none" stroke="black" d="M241.83,-250.5C240.51,-258.85 238.92,-268.92 237.45,-278.19"/>
<polygon fill="black" stroke="black" points="233.973,-277.766 235.87,-288.19 240.888,-278.859 233.973,-277.766"/>
</g>
<!-- 010111 -->
<g id="node5" class="node"><title>010111</title>
<ellipse fill="none" stroke="black" cx="212.28" cy="-378.46" rx="37.0935" ry="18"/>
<text text-anchor="middle" x="212.28" y="-374.76" font-family="Times,serif" font-size="14.00">010111</text>
</g>
<!-- 110111&#45;&#45;010111 -->
<g id="edge4" class="edge"><title>110111&#45;&#45;010111</title>
<path fill="none" stroke="black" d="M227.89,-324.14C225.57,-332.21 222.78,-341.92 220.2,-350.89"/>
<polygon fill="black" stroke="black" points="216.813,-350.003 217.42,-360.58 223.542,-351.933 216.813,-350.003"/>
</g>
<!-- 111000 -->
<g id="node46" class="node"><title>111000</title>
<ellipse fill="none" stroke="black" cx="155.05" cy="-425.91" rx="37.0935" ry="18"/>
<text text-anchor="middle" x="155.05" y="-422.21" font-family="Times,serif" font-size="14.00">111000</text>
</g>
<!-- 010111&#45;&#45;111000 -->
<g id="edge44" class="edge"><title>010111&#45;&#45;111000</title>
<path fill="none" stroke="black" d="M193.54,-393.99C189.82,-397.07 185.85,-400.37 181.93,-403.62"/>
<polygon fill="black" stroke="black" points="179.494,-401.093 174.03,-410.17 183.962,-406.482 179.494,-401.093"/>
</g>
<!-- 110001 -->
<g id="node6" class="node"><title>110001</title>
<ellipse fill="none" stroke="black" cx="787.36" cy="-195.99" rx="37.0935" ry="18"/>
<text text-anchor="middle" x="787.36" y="-192.29" font-family="Times,serif" font-size="14.00">110001</text>
</g>
<!-- 010011 -->
<g id="node7" class="node"><title>010011</title>
<ellipse fill="none" stroke="black" cx="766.86" cy="-274.85" rx="37.0935" ry="18"/>
<text text-anchor="middle" x="766.86" y="-271.15" font-family="Times,serif" font-size="14.00">010011</text>
</g>
<!-- 110001&#45;&#45;010011 -->
<g id="edge5" class="edge"><title>110001&#45;&#45;010011</title>
<path fill="none" stroke="black" d="M782.71,-213.88C780.18,-223.59 777.01,-235.82 774.16,-246.77"/>
<polygon fill="black" stroke="black" points="770.694,-246.191 771.57,-256.75 777.47,-247.95 770.694,-246.191"/>
</g>
<!-- 100110 -->
<g id="node8" class="node"><title>100110</title>
<ellipse fill="none" stroke="black" cx="736.41" cy="-347.56" rx="37.0935" ry="18"/>
<text text-anchor="middle" x="736.41" y="-343.86" font-family="Times,serif" font-size="14.00">100110</text>
</g>
<!-- 010011&#45;&#45;100110 -->
<g id="edge6" class="edge"><title>010011&#45;&#45;100110</title>
<path fill="none" stroke="black" d="M759.33,-292.82C755.87,-301.1 751.68,-311.1 747.84,-320.27"/>
<polygon fill="black" stroke="black" points="744.487,-319.214 743.85,-329.79 750.943,-321.92 744.487,-319.214"/>
</g>
<!-- 000001 -->
<g id="node9" class="node"><title>000001</title>
<ellipse fill="none" stroke="black" cx="698.98" cy="-417.69" rx="37.0935" ry="18"/>
<text text-anchor="middle" x="698.98" y="-413.99" font-family="Times,serif" font-size="14.00">000001</text>
</g>
<!-- 100110&#45;&#45;000001 -->
<g id="edge7" class="edge"><title>100110&#45;&#45;000001</title>
<path fill="none" stroke="black" d="M726.97,-365.25C722.77,-373.12 717.74,-382.55 713.11,-391.23"/>
<polygon fill="black" stroke="black" points="709.922,-389.77 708.3,-400.24 716.097,-393.067 709.922,-389.77"/>
</g>
<!-- 110100 -->
<g id="node10" class="node"><title>110100</title>
<ellipse fill="none" stroke="black" cx="641.32" cy="-476.81" rx="37.0935" ry="18"/>
<text text-anchor="middle" x="641.32" y="-473.11" font-family="Times,serif" font-size="14.00">110100</text>
</g>
<!-- 000001&#45;&#45;110100 -->
<g id="edge8" class="edge"><title>000001&#45;&#45;110100</title>
<path fill="none" stroke="black" d="M682.92,-434.16C677.17,-440.05 670.58,-446.82 664.36,-453.2"/>
<polygon fill="black" stroke="black" points="661.782,-450.83 657.3,-460.43 666.79,-455.721 661.782,-450.83"/>
</g>
<!-- 101000 -->
<g id="node16" class="node"><title>101000</title>
<ellipse fill="none" stroke="black" cx="575.03" cy="-426.36" rx="37.0935" ry="18"/>
<text text-anchor="middle" x="575.03" y="-422.66" font-family="Times,serif" font-size="14.00">101000</text>
</g>
<!-- 110100&#45;&#45;101000 -->
<g id="edge13" class="edge"><title>110100&#45;&#45;101000</title>
<path fill="none" stroke="black" d="M621.07,-461.4C615.42,-457.1 609.17,-452.34 603.15,-447.76"/>
<polygon fill="black" stroke="black" points="605.237,-444.95 595.16,-441.68 600.998,-450.521 605.237,-444.95"/>
</g>
<!-- 110101 -->
<g id="node11" class="node"><title>110101</title>
<ellipse fill="none" stroke="black" cx="246.37" cy="-739.6" rx="37.0935" ry="18"/>
<text text-anchor="middle" x="246.37" y="-735.9" font-family="Times,serif" font-size="14.00">110101</text>
</g>
<!-- 101010 -->
<g id="node12" class="node"><title>101010</title>
<ellipse fill="none" stroke="black" cx="323.83" cy="-715.38" rx="37.0935" ry="18"/>
<text text-anchor="middle" x="323.83" y="-711.68" font-family="Times,serif" font-size="14.00">101010</text>
</g>
<!-- 110101&#45;&#45;101010 -->
<g id="edge9" class="edge"><title>110101&#45;&#45;101010</title>
<path fill="none" stroke="black" d="M277.88,-729.75C279.55,-729.23 281.23,-728.7 282.93,-728.17"/>
<polygon fill="black" stroke="black" points="284.104,-731.47 292.6,-725.14 282.011,-724.79 284.104,-731.47"/>
</g>
<!-- 011011 -->
<g id="node13" class="node"><title>011011</title>
<ellipse fill="none" stroke="black" cx="404.86" cy="-692.84" rx="37.0935" ry="18"/>
<text text-anchor="middle" x="404.86" y="-689.14" font-family="Times,serif" font-size="14.00">011011</text>
</g>
<!-- 101010&#45;&#45;011011 -->
<g id="edge10" class="edge"><title>101010&#45;&#45;011011</title>
<path fill="none" stroke="black" d="M356.32,-706.34C358.5,-705.73 360.72,-705.12 362.94,-704.5"/>
<polygon fill="black" stroke="black" points="363.928,-707.858 372.62,-701.8 362.047,-701.115 363.928,-707.858"/>
</g>
<!-- 100011 -->
<g id="node14" class="node"><title>100011</title>
<ellipse fill="none" stroke="black" cx="487.15" cy="-671.98" rx="37.0935" ry="18"/>
<text text-anchor="middle" x="487.15" y="-668.28" font-family="Times,serif" font-size="14.00">100011</text>
</g>
<!-- 011011&#45;&#45;100011 -->
<g id="edge11" class="edge"><title>011011&#45;&#45;100011</title>
<path fill="none" stroke="black" d="M437.86,-684.47C439.95,-683.94 442.08,-683.4 444.21,-682.86"/>
<polygon fill="black" stroke="black" points="445.311,-686.192 454.15,-680.35 443.597,-679.405 445.311,-686.192"/>
</g>
<!-- 100010 -->
<g id="node15" class="node"><title>100010</title>
<ellipse fill="none" stroke="black" cx="571.19" cy="-636.27" rx="37.0935" ry="18"/>
<text text-anchor="middle" x="571.19" y="-632.57" font-family="Times,serif" font-size="14.00">100010</text>
</g>
<!-- 100011&#45;&#45;100010 -->
<g id="edge12" class="edge"><title>100011&#45;&#45;100010</title>
<path fill="none" stroke="black" d="M515.13,-660.09C521.02,-657.59 527.33,-654.91 533.51,-652.28"/>
<polygon fill="black" stroke="black" points="535.205,-655.362 543.04,-648.23 532.467,-648.92 535.205,-655.362"/>
</g>
<!-- 011010 -->
<g id="node37" class="node"><title>011010</title>
<ellipse fill="none" stroke="black" cx="623.13" cy="-562.02" rx="37.0935" ry="18"/>
<text text-anchor="middle" x="623.13" y="-558.32" font-family="Times,serif" font-size="14.00">011010</text>
</g>
<!-- 100010&#45;&#45;011010 -->
<g id="edge34" class="edge"><title>100010&#45;&#45;011010</title>
<path fill="none" stroke="black" d="M583.24,-619.05C589.79,-609.68 598.03,-597.91 605.31,-587.49"/>
<polygon fill="black" stroke="black" points="608.281,-589.349 611.15,-579.15 602.547,-585.334 608.281,-589.349"/>
</g>
<!-- 111010 -->
<g id="node17" class="node"><title>111010</title>
<ellipse fill="none" stroke="black" cx="499.59" cy="-432.36" rx="37.0935" ry="18"/>
<text text-anchor="middle" x="499.59" y="-428.66" font-family="Times,serif" font-size="14.00">111010</text>
</g>
<!-- 101000&#45;&#45;111010 -->
<g id="edge14" class="edge"><title>101000&#45;&#45;111010</title>
<path fill="none" stroke="black" d="M538.2,-429.29C538.05,-429.3 537.9,-429.31 537.75,-429.32"/>
<polygon fill="black" stroke="black" points="546.082,-425.129 536.4,-429.43 546.651,-432.106 546.082,-425.129"/>
</g>
<!-- 011000 -->
<g id="node18" class="node"><title>011000</title>
<ellipse fill="none" stroke="black" cx="483.94" cy="-509.52" rx="37.0935" ry="18"/>
<text text-anchor="middle" x="483.94" y="-505.82" font-family="Times,serif" font-size="14.00">011000</text>
</g>
<!-- 111010&#45;&#45;011000 -->
<g id="edge15" class="edge"><title>111010&#45;&#45;011000</title>
<path fill="none" stroke="black" d="M495.88,-450.64C494.01,-459.87 491.7,-471.26 489.61,-481.56"/>
<polygon fill="black" stroke="black" points="486.178,-480.874 487.62,-491.37 493.038,-482.265 486.178,-480.874"/>
</g>
<!-- 101101 -->
<g id="node19" class="node"><title>101101</title>
<ellipse fill="none" stroke="black" cx="523.25" cy="-580.98" rx="37.0935" ry="18"/>
<text text-anchor="middle" x="523.25" y="-577.28" font-family="Times,serif" font-size="14.00">101101</text>
</g>
<!-- 011000&#45;&#45;101101 -->
<g id="edge16" class="edge"><title>011000&#45;&#45;101101</title>
<path fill="none" stroke="black" d="M493.65,-527.19C498.22,-535.49 503.77,-545.57 508.81,-554.74"/>
<polygon fill="black" stroke="black" points="505.753,-556.445 513.64,-563.52 511.886,-553.071 505.753,-556.445"/>
</g>
<!-- 101101&#45;&#45;100010 -->
<g id="edge54" class="edge"><title>101101&#45;&#45;100010</title>
<path fill="none" stroke="black" d="M537.63,-597.57C541.45,-601.97 545.65,-606.82 549.76,-611.55"/>
<polygon fill="black" stroke="black" points="547.288,-614.042 556.48,-619.31 552.579,-609.459 547.288,-614.042"/>
</g>
<!-- 010100 -->
<g id="node20" class="node"><title>010100</title>
<ellipse fill="none" stroke="black" cx="812.56" cy="-595.91" rx="37.0935" ry="18"/>
<text text-anchor="middle" x="812.56" y="-592.21" font-family="Times,serif" font-size="14.00">010100</text>
</g>
<!-- 000010 -->
<g id="node21" class="node"><title>000010</title>
<ellipse fill="none" stroke="black" cx="880.56" cy="-546.47" rx="37.0935" ry="18"/>
<text text-anchor="middle" x="880.56" y="-542.77" font-family="Times,serif" font-size="14.00">000010</text>
</g>
<!-- 010100&#45;&#45;000010 -->
<g id="edge17" class="edge"><title>010100&#45;&#45;000010</title>
<path fill="none" stroke="black" d="M833.33,-580.81C839.13,-576.59 845.54,-571.93 851.72,-567.44"/>
<polygon fill="black" stroke="black" points="853.883,-570.194 859.91,-561.48 849.765,-564.534 853.883,-570.194"/>
</g>
<!-- 101001 -->
<g id="node22" class="node"><title>101001</title>
<ellipse fill="none" stroke="black" cx="944.42" cy="-599.41" rx="37.0935" ry="18"/>
<text text-anchor="middle" x="944.42" y="-595.71" font-family="Times,serif" font-size="14.00">101001</text>
</g>
<!-- 000010&#45;&#45;101001 -->
<g id="edge18" class="edge"><title>000010&#45;&#45;101001</title>
<path fill="none" stroke="black" d="M899.37,-562.07C905.04,-566.77 911.37,-572.02 917.46,-577.06"/>
<polygon fill="black" stroke="black" points="915.587,-580.054 925.52,-583.74 920.054,-574.664 915.587,-580.054"/>
</g>
<!-- 000000 -->
<g id="node23" class="node"><title>000000</title>
<ellipse fill="none" stroke="black" cx="1007.8" cy="-652.87" rx="37.0935" ry="18"/>
<text text-anchor="middle" x="1007.8" y="-649.17" font-family="Times,serif" font-size="14.00">000000</text>
</g>
<!-- 101001&#45;&#45;000000 -->
<g id="edge19" class="edge"><title>101001&#45;&#45;000000</title>
<path fill="none" stroke="black" d="M963.08,-615.16C968.7,-619.9 974.98,-625.21 981.02,-630.3"/>
<polygon fill="black" stroke="black" points="979.112,-633.27 989.01,-637.05 983.629,-627.923 979.112,-633.27"/>
</g>
<!-- 001100 -->
<g id="node24" class="node"><title>001100</title>
<ellipse fill="none" stroke="black" cx="977.71" cy="-732.27" rx="37.0935" ry="18"/>
<text text-anchor="middle" x="977.71" y="-728.57" font-family="Times,serif" font-size="14.00">001100</text>
</g>
<!-- 000000&#45;&#45;001100 -->
<g id="edge20" class="edge"><title>000000&#45;&#45;001100</title>
<path fill="none" stroke="black" d="M1000.9,-670.89C997.14,-680.94 992.33,-693.66 988.07,-704.92"/>
<polygon fill="black" stroke="black" points="984.778,-703.729 984.51,-714.32 991.325,-706.208 984.778,-703.729"/>
</g>
<!-- 100111 -->
<g id="node26" class="node"><title>100111</title>
<ellipse fill="none" stroke="black" cx="1034.7" cy="-787.19" rx="37.0935" ry="18"/>
<text text-anchor="middle" x="1034.7" y="-783.49" font-family="Times,serif" font-size="14.00">100111</text>
</g>
<!-- 001100&#45;&#45;100111 -->
<g id="edge22" class="edge"><title>001100&#45;&#45;100111</title>
<path fill="none" stroke="black" d="M994.51,-748.45C999.45,-753.21 1005,-758.52 1010.3,-763.65"/>
<polygon fill="black" stroke="black" points="1008.19,-766.48 1017.8,-770.94 1013.07,-761.46 1008.19,-766.48"/>
</g>
<!-- 010101 -->
<g id="node25" class="node"><title>010101</title>
<ellipse fill="none" stroke="black" cx="717.13" cy="-148.27" rx="37.0935" ry="18"/>
<text text-anchor="middle" x="717.13" y="-144.57" font-family="Times,serif" font-size="14.00">010101</text>
</g>
<!-- 010101&#45;&#45;110001 -->
<g id="edge21" class="edge"><title>010101&#45;&#45;110001</title>
<path fill="none" stroke="black" d="M738.96,-163.11C744.7,-167.01 750.99,-171.28 757.08,-175.42"/>
<polygon fill="black" stroke="black" points="755.539,-178.604 765.78,-181.32 759.468,-172.811 755.539,-178.604"/>
</g>
<!-- 000110 -->
<g id="node27" class="node"><title>000110</title>
<ellipse fill="none" stroke="black" cx="1066.8" cy="-711.95" rx="37.0935" ry="18"/>
<text text-anchor="middle" x="1066.8" y="-708.25" font-family="Times,serif" font-size="14.00">000110</text>
</g>
<!-- 100111&#45;&#45;000110 -->
<g id="edge23" class="edge"><title>100111&#45;&#45;000110</title>
<path fill="none" stroke="black" d="M1042.3,-769.36C1046.2,-760.27 1051,-749.03 1055.3,-738.91"/>
<polygon fill="black" stroke="black" points="1058.55,-740.218 1059.3,-729.65 1052.12,-737.442 1058.55,-740.218"/>
</g>
<!-- 000110&#45;&#45;000000 -->
<g id="edge24" class="edge"><title>000110&#45;&#45;000000</title>
<path fill="none" stroke="black" d="M1050.4,-695.49C1044.5,-689.6 1037.7,-682.84 1031.4,-676.47"/>
<polygon fill="black" stroke="black" points="1033.67,-673.79 1024.1,-669.24 1028.74,-678.764 1033.67,-673.79"/>
</g>
<!-- 001101 -->
<g id="node28" class="node"><title>001101</title>
<ellipse fill="none" stroke="black" cx="818.69" cy="-845.28" rx="37.0935" ry="18"/>
<text text-anchor="middle" x="818.69" y="-841.58" font-family="Times,serif" font-size="14.00">001101</text>
</g>
<!-- 000101 -->
<g id="node29" class="node"><title>000101</title>
<ellipse fill="none" stroke="black" cx="755.39" cy="-796.58" rx="37.0935" ry="18"/>
<text text-anchor="middle" x="755.39" y="-792.88" font-family="Times,serif" font-size="14.00">000101</text>
</g>
<!-- 001101&#45;&#45;000101 -->
<g id="edge25" class="edge"><title>001101&#45;&#45;000101</title>
<path fill="none" stroke="black" d="M798.66,-829.87C793.93,-826.23 788.79,-822.28 783.77,-818.41"/>
<polygon fill="black" stroke="black" points="785.563,-815.374 775.5,-812.06 781.3,-820.926 785.563,-815.374"/>
</g>
<!-- 011101 -->
<g id="node30" class="node"><title>011101</title>
<ellipse fill="none" stroke="black" cx="675.97" cy="-771.95" rx="37.0935" ry="18"/>
<text text-anchor="middle" x="675.97" y="-768.25" font-family="Times,serif" font-size="14.00">011101</text>
</g>
<!-- 000101&#45;&#45;011101 -->
<g id="edge26" class="edge"><title>000101&#45;&#45;011101</title>
<path fill="none" stroke="black" d="M724,-786.85C721.69,-786.13 719.35,-785.41 717,-784.68"/>
<polygon fill="black" stroke="black" points="717.978,-781.319 707.39,-781.7 715.904,-788.005 717.978,-781.319"/>
</g>
<!-- 111001 -->
<g id="node31" class="node"><title>111001</title>
<ellipse fill="none" stroke="black" cx="626.54" cy="-702.61" rx="37.0935" ry="18"/>
<text text-anchor="middle" x="626.54" y="-698.91" font-family="Times,serif" font-size="14.00">111001</text>
</g>
<!-- 011101&#45;&#45;111001 -->
<g id="edge27" class="edge"><title>011101&#45;&#45;111001</title>
<path fill="none" stroke="black" d="M663.75,-754.81C658.03,-746.79 651.1,-737.06 644.78,-728.19"/>
<polygon fill="black" stroke="black" points="647.62,-726.144 638.96,-720.04 641.923,-730.212 647.62,-726.144"/>
</g>
<!-- 111001&#45;&#45;100010 -->
<g id="edge28" class="edge"><title>111001&#45;&#45;100010</title>
<path fill="none" stroke="black" d="M612.58,-685.87C606.33,-678.38 598.84,-669.41 591.96,-661.16"/>
<polygon fill="black" stroke="black" points="594.444,-658.675 585.35,-653.24 589.07,-663.16 594.444,-658.675"/>
</g>
<!-- 011110 -->
<g id="node32" class="node"><title>011110</title>
<ellipse fill="none" stroke="black" cx="871.1" cy="-901.62" rx="37.0935" ry="18"/>
<text text-anchor="middle" x="871.1" y="-897.92" font-family="Times,serif" font-size="14.00">011110</text>
</g>
<!-- 011110&#45;&#45;001101 -->
<g id="edge29" class="edge"><title>011110&#45;&#45;001101</title>
<path fill="none" stroke="black" d="M855.66,-885.02C851.11,-880.13 846.05,-874.69 841.16,-869.43"/>
<polygon fill="black" stroke="black" points="843.574,-866.887 834.2,-861.95 838.449,-871.655 843.574,-866.887"/>
</g>
<!-- 011111 -->
<g id="node33" class="node"><title>011111</title>
<ellipse fill="none" stroke="black" cx="933.59" cy="-131.1" rx="37.0935" ry="18"/>
<text text-anchor="middle" x="933.59" y="-127.4" font-family="Times,serif" font-size="14.00">011111</text>
</g>
<!-- 001001 -->
<g id="node34" class="node"><title>001001</title>
<ellipse fill="none" stroke="black" cx="846.99" cy="-135.85" rx="37.0935" ry="18"/>
<text text-anchor="middle" x="846.99" y="-132.15" font-family="Times,serif" font-size="14.00">001001</text>
</g>
<!-- 011111&#45;&#45;001001 -->
<g id="edge30" class="edge"><title>011111&#45;&#45;001001</title>
<path fill="none" stroke="black" d="M896.61,-133.13C895.82,-133.17 895.02,-133.21 894.23,-133.26"/>
<polygon fill="black" stroke="black" points="893.633,-129.787 883.84,-133.83 894.016,-136.777 893.633,-129.787"/>
</g>
<!-- 001001&#45;&#45;110001 -->
<g id="edge31" class="edge"><title>001001&#45;&#45;110001</title>
<path fill="none" stroke="black" d="M830.7,-152.28C824.65,-158.38 817.66,-165.43 811.08,-172.06"/>
<polygon fill="black" stroke="black" points="808.188,-170.006 803.63,-179.57 813.157,-174.936 808.188,-170.006"/>
</g>
<!-- 001000 -->
<g id="node35" class="node"><title>001000</title>
<ellipse fill="none" stroke="black" cx="1042.9" cy="-18" rx="37.0935" ry="18"/>
<text text-anchor="middle" x="1042.9" y="-14.3" font-family="Times,serif" font-size="14.00">001000</text>
</g>
<!-- 000111 -->
<g id="node36" class="node"><title>000111</title>
<ellipse fill="none" stroke="black" cx="985.58" cy="-67.578" rx="37.0935" ry="18"/>
<text text-anchor="middle" x="985.58" y="-63.878" font-family="Times,serif" font-size="14.00">000111</text>
</g>
<!-- 001000&#45;&#45;000111 -->
<g id="edge32" class="edge"><title>001000&#45;&#45;000111</title>
<path fill="none" stroke="black" d="M1024.5,-33.96C1020.4,-37.498 1016,-41.312 1011.6,-45.057"/>
<polygon fill="black" stroke="black" points="1009.26,-42.452 1004,-51.648 1013.85,-47.7404 1009.26,-42.452"/>
</g>
<!-- 000111&#45;&#45;011111 -->
<g id="edge33" class="edge"><title>000111&#45;&#45;011111</title>
<path fill="none" stroke="black" d="M971.65,-84.601C966.29,-91.151 960.04,-98.777 954.19,-105.93"/>
<polygon fill="black" stroke="black" points="951.185,-104.075 947.56,-114.03 956.602,-108.509 951.185,-104.075"/>
</g>
<!-- 011010&#45;&#45;110100 -->
<g id="edge35" class="edge"><title>011010&#45;&#45;110100</title>
<path fill="none" stroke="black" d="M626.99,-543.95C629.42,-532.54 632.62,-517.57 635.38,-504.66"/>
<polygon fill="black" stroke="black" points="638.807,-505.37 637.47,-494.86 631.961,-503.91 638.807,-505.37"/>
</g>
<!-- 000011 -->
<g id="node38" class="node"><title>000011</title>
<ellipse fill="none" stroke="black" cx="37.0467" cy="-816.54" rx="37.0935" ry="18"/>
<text text-anchor="middle" x="37.0467" y="-812.84" font-family="Times,serif" font-size="14.00">000011</text>
</g>
<!-- 110011 -->
<g id="node39" class="node"><title>110011</title>
<ellipse fill="none" stroke="black" cx="102.42" cy="-783.76" rx="37.0935" ry="18"/>
<text text-anchor="middle" x="102.42" y="-780.06" font-family="Times,serif" font-size="14.00">110011</text>
</g>
<!-- 000011&#45;&#45;110011 -->
<g id="edge36" class="edge"><title>000011&#45;&#45;110011</title>
<path fill="none" stroke="black" d="M62.8827,-803.58C64.2657,-802.89 65.6657,-802.19 67.0727,-801.48"/>
<polygon fill="black" stroke="black" points="68.9656,-804.447 76.3407,-796.84 65.8319,-798.187 68.9656,-804.447"/>
</g>
<!-- 100100 -->
<g id="node40" class="node"><title>100100</title>
<ellipse fill="none" stroke="black" cx="172.2" cy="-758.97" rx="37.0935" ry="18"/>
<text text-anchor="middle" x="172.2" y="-755.27" font-family="Times,serif" font-size="14.00">100100</text>
</g>
<!-- 110011&#45;&#45;100100 -->
<g id="edge37" class="edge"><title>110011&#45;&#45;100100</title>
<path fill="none" stroke="black" d="M132.42,-773.1C132.52,-773.06 132.62,-773.03 132.72,-772.99"/>
<polygon fill="black" stroke="black" points="133.979,-776.257 142.23,-769.61 131.635,-769.661 133.979,-776.257"/>
</g>
<!-- 100100&#45;&#45;110101 -->
<g id="edge38" class="edge"><title>100100&#45;&#45;110101</title>
<path fill="none" stroke="black" d="M204.95,-750.42C205.04,-750.39 205.12,-750.37 205.21,-750.35"/>
<polygon fill="black" stroke="black" points="204.578,-754.132 213.37,-748.22 202.81,-747.359 204.578,-754.132"/>
</g>
<!-- 100101 -->
<g id="node41" class="node"><title>100101</title>
<ellipse fill="none" stroke="black" cx="1147.5" cy="-713.64" rx="37.0935" ry="18"/>
<text text-anchor="middle" x="1147.5" y="-709.94" font-family="Times,serif" font-size="14.00">100101</text>
</g>
<!-- 100101&#45;&#45;000110 -->
<g id="edge39" class="edge"><title>100101&#45;&#45;000110</title>
<path fill="none" stroke="black" d="M1110.5,-712.87C1110.3,-712.86 1110.2,-712.86 1110.1,-712.86"/>
<polygon fill="black" stroke="black" points="1114.07,-709.444 1104,-712.73 1113.92,-716.442 1114.07,-709.444"/>
</g>
<!-- 111100 -->
<g id="node42" class="node"><title>111100</title>
<ellipse fill="none" stroke="black" cx="655.34" cy="-930.7" rx="37.0935" ry="18"/>
<text text-anchor="middle" x="655.34" y="-927" font-family="Times,serif" font-size="14.00">111100</text>
</g>
<!-- 000100 -->
<g id="node43" class="node"><title>000100</title>
<ellipse fill="none" stroke="black" cx="654.84" cy="-851.53" rx="37.0935" ry="18"/>
<text text-anchor="middle" x="654.84" y="-847.83" font-family="Times,serif" font-size="14.00">000100</text>
</g>
<!-- 111100&#45;&#45;000100 -->
<g id="edge40" class="edge"><title>111100&#45;&#45;000100</title>
<path fill="none" stroke="black" d="M655.22,-912.34C655.16,-902.75 655.09,-890.79 655.02,-880.03"/>
<polygon fill="black" stroke="black" points="658.518,-879.776 654.95,-869.8 651.518,-879.824 658.518,-879.776"/>
</g>
<!-- 000100&#45;&#45;011101 -->
<g id="edge41" class="edge"><title>000100&#45;&#45;011101</title>
<path fill="none" stroke="black" d="M659.63,-833.47C662.28,-823.5 665.63,-810.91 668.6,-799.71"/>
<polygon fill="black" stroke="black" points="672.01,-800.503 671.19,-789.94 665.244,-798.709 672.01,-800.503"/>
</g>
<!-- 111101 -->
<g id="node44" class="node"><title>111101</title>
<ellipse fill="none" stroke="black" cx="252.1" cy="-520.16" rx="37.0935" ry="18"/>
<text text-anchor="middle" x="252.1" y="-516.46" font-family="Times,serif" font-size="14.00">111101</text>
</g>
<!-- 110110 -->
<g id="node45" class="node"><title>110110</title>
<ellipse fill="none" stroke="black" cx="222.98" cy="-451.59" rx="37.0935" ry="18"/>
<text text-anchor="middle" x="222.98" y="-447.89" font-family="Times,serif" font-size="14.00">110110</text>
</g>
<!-- 111101&#45;&#45;110110 -->
<g id="edge42" class="edge"><title>111101&#45;&#45;110110</title>
<path fill="none" stroke="black" d="M244.6,-502.5C241.53,-495.28 237.91,-486.76 234.52,-478.78"/>
<polygon fill="black" stroke="black" points="237.68,-477.267 230.55,-469.43 231.236,-480.003 237.68,-477.267"/>
</g>
<!-- 110110&#45;&#45;010111 -->
<g id="edge43" class="edge"><title>110110&#45;&#45;010111</title>
<path fill="none" stroke="black" d="M220.33,-433.51C219.15,-425.42 217.73,-415.7 216.41,-406.69"/>
<polygon fill="black" stroke="black" points="219.841,-405.968 214.93,-396.58 212.915,-406.982 219.841,-405.968"/>
</g>
<!-- 111000&#45;&#45;110110 -->
<g id="edge45" class="edge"><title>111000&#45;&#45;110110</title>
<path fill="none" stroke="black" d="M184.64,-437.1C184.74,-437.13 184.83,-437.17 184.93,-437.2"/>
<polygon fill="black" stroke="black" points="183.108,-440.253 193.7,-440.52 185.587,-433.706 183.108,-440.253"/>
</g>
<!-- 101110 -->
<g id="node47" class="node"><title>101110</title>
<ellipse fill="none" stroke="black" cx="850.01" cy="-58.411" rx="37.0935" ry="18"/>
<text text-anchor="middle" x="850.01" y="-54.711" font-family="Times,serif" font-size="14.00">101110</text>
</g>
<!-- 101110&#45;&#45;001001 -->
<g id="edge46" class="edge"><title>101110&#45;&#45;001001</title>
<path fill="none" stroke="black" d="M849.3,-76.763C848.94,-85.924 848.5,-97.213 848.1,-107.46"/>
<polygon fill="black" stroke="black" points="844.596,-107.5 847.7,-117.63 851.59,-107.775 844.596,-107.5"/>
</g>
<!-- 101111 -->
<g id="node48" class="node"><title>101111</title>
<ellipse fill="none" stroke="black" cx="509.05" cy="-844" rx="37.0935" ry="18"/>
<text text-anchor="middle" x="509.05" y="-840.3" font-family="Times,serif" font-size="14.00">101111</text>
</g>
<!-- 011001 -->
<g id="node49" class="node"><title>011001</title>
<ellipse fill="none" stroke="black" cx="525.12" cy="-914.47" rx="37.0935" ry="18"/>
<text text-anchor="middle" x="525.12" y="-910.77" font-family="Times,serif" font-size="14.00">011001</text>
</g>
<!-- 101111&#45;&#45;011001 -->
<g id="edge47" class="edge"><title>101111&#45;&#45;011001</title>
<path fill="none" stroke="black" d="M513.19,-862.15C514.86,-869.49 516.83,-878.13 518.68,-886.26"/>
<polygon fill="black" stroke="black" points="515.298,-887.172 520.94,-896.14 522.122,-885.611 515.298,-887.172"/>
</g>
<!-- 110010 -->
<g id="node50" class="node"><title>110010</title>
<ellipse fill="none" stroke="black" cx="523.51" cy="-986.69" rx="37.0935" ry="18"/>
<text text-anchor="middle" x="523.51" y="-982.99" font-family="Times,serif" font-size="14.00">110010</text>
</g>
<!-- 011001&#45;&#45;110010 -->
<g id="edge48" class="edge"><title>011001&#45;&#45;110010</title>
<path fill="none" stroke="black" d="M524.71,-932.69C524.54,-940.48 524.33,-949.74 524.14,-958.38"/>
<polygon fill="black" stroke="black" points="520.639,-958.396 523.92,-968.47 527.637,-958.549 520.639,-958.396"/>
</g>
<!-- 001111 -->
<g id="node51" class="node"><title>001111</title>
<ellipse fill="none" stroke="black" cx="515.01" cy="-1058.3" rx="37.0935" ry="18"/>
<text text-anchor="middle" x="515.01" y="-1054.6" font-family="Times,serif" font-size="14.00">001111</text>
</g>
<!-- 110010&#45;&#45;001111 -->
<g id="edge49" class="edge"><title>110010&#45;&#45;001111</title>
<path fill="none" stroke="black" d="M521.37,-1004.8C520.46,-1012.4 519.38,-1021.5 518.37,-1030"/>
<polygon fill="black" stroke="black" points="514.886,-1029.66 517.19,-1040 521.838,-1030.48 514.886,-1029.66"/>
</g>
<!-- 001111&#45;&#45;001111 -->
<g id="edge50" class="edge"><title>001111&#45;&#45;001111</title>
<path fill="none" stroke="black" d="M549.42,-1065C560.88,-1065 570.06,-1062.8 570.06,-1058.3 570.06,-1055.3 565.92,-1053.3 559.72,-1052.3"/>
<polygon fill="black" stroke="black" points="559.661,-1048.78 549.42,-1051.5 559.119,-1055.76 559.661,-1048.78"/>
</g>
<!-- 101011 -->
<g id="node52" class="node"><title>101011</title>
<ellipse fill="none" stroke="black" cx="792.33" cy="-66.702" rx="37.0935" ry="18"/>
<text text-anchor="middle" x="792.33" y="-63.002" font-family="Times,serif" font-size="14.00">101011</text>
</g>
<!-- 101011&#45;&#45;001001 -->
<g id="edge51" class="edge"><title>101011&#45;&#45;001001</title>
<path fill="none" stroke="black" d="M805.84,-83.794C812.33,-92 820.23,-101.99 827.36,-111.01"/>
<polygon fill="black" stroke="black" points="824.691,-113.278 833.64,-118.95 830.181,-108.935 824.691,-113.278"/>
</g>
<!-- 010010 -->
<g id="node53" class="node"><title>010010</title>
<ellipse fill="none" stroke="black" cx="328.3" cy="-798.04" rx="37.0935" ry="18"/>
<text text-anchor="middle" x="328.3" y="-794.34" font-family="Times,serif" font-size="14.00">010010</text>
</g>
<!-- 010010&#45;&#45;101010 -->
<g id="edge52" class="edge"><title>010010&#45;&#45;101010</title>
<path fill="none" stroke="black" d="M327.31,-779.7C326.73,-769.03 325.99,-755.36 325.34,-743.37"/>
<polygon fill="black" stroke="black" points="328.835,-743.186 324.8,-733.39 321.845,-743.565 328.835,-743.186"/>
</g>
<!-- 010110 -->
<g id="node54" class="node"><title>010110</title>
<ellipse fill="none" stroke="black" cx="804.05" cy="-525.01" rx="37.0935" ry="18"/>
<text text-anchor="middle" x="804.05" y="-521.31" font-family="Times,serif" font-size="14.00">010110</text>
</g>
<!-- 010110&#45;&#45;000010 -->
<g id="edge53" class="edge"><title>010110&#45;&#45;000010</title>
<path fill="none" stroke="black" d="M836.49,-534.11C837.11,-534.29 837.72,-534.46 838.33,-534.63"/>
<polygon fill="black" stroke="black" points="837.726,-538.096 848.3,-537.43 839.619,-531.356 837.726,-538.096"/>
</g>
<!-- 011100 -->
<g id="node55" class="node"><title>011100</title>
<ellipse fill="none" stroke="black" cx="893.68" cy="-313" rx="37.0935" ry="18"/>
<text text-anchor="middle" x="893.68" y="-309.3" font-family="Times,serif" font-size="14.00">011100</text>
</g>
<!-- 010001 -->
<g id="node56" class="node"><title>010001</title>
<ellipse fill="none" stroke="black" cx="893.92" cy="-387.14" rx="37.0935" ry="18"/>
<text text-anchor="middle" x="893.92" y="-383.44" font-family="Times,serif" font-size="14.00">010001</text>
</g>
<!-- 011100&#45;&#45;010001 -->
<g id="edge55" class="edge"><title>011100&#45;&#45;010001</title>
<path fill="none" stroke="black" d="M893.74,-331.33C893.77,-339.59 893.8,-349.53 893.83,-358.72"/>
<polygon fill="black" stroke="black" points="890.331,-359.03 893.86,-369.02 897.33,-359.01 890.331,-359.03"/>
</g>
<!-- 100000 -->
<g id="node57" class="node"><title>100000</title>
<ellipse fill="none" stroke="black" cx="895.83" cy="-464.1" rx="37.0935" ry="18"/>
<text text-anchor="middle" x="895.83" y="-460.4" font-family="Times,serif" font-size="14.00">100000</text>
</g>
<!-- 010001&#45;&#45;100000 -->
<g id="edge56" class="edge"><title>010001&#45;&#45;100000</title>
<path fill="none" stroke="black" d="M894.37,-405.38C894.6,-414.48 894.88,-425.7 895.13,-435.89"/>
<polygon fill="black" stroke="black" points="891.633,-436.08 895.38,-445.99 898.631,-435.906 891.633,-436.08"/>
</g>
<!-- 100000&#45;&#45;000010 -->
<g id="edge57" class="edge"><title>100000&#45;&#45;000010</title>
<path fill="none" stroke="black" d="M892.44,-482.38C890.47,-493.01 887.94,-506.63 885.73,-518.58"/>
<polygon fill="black" stroke="black" points="882.267,-518.059 883.88,-528.53 889.149,-519.338 882.267,-518.059"/>
</g>
<!-- 001010 -->
<g id="node58" class="node"><title>001010</title>
<ellipse fill="none" stroke="black" cx="269.03" cy="-77" rx="37.0935" ry="18"/>
<text text-anchor="middle" x="269.03" y="-73.3" font-family="Times,serif" font-size="14.00">001010</text>
</g>
<!-- 001010&#45;&#45;111111 -->
<g id="edge58" class="edge"><title>001010&#45;&#45;111111</title>
<path fill="none" stroke="black" d="M266.15,-95.256C264.72,-104.37 262.95,-115.6 261.35,-125.79"/>
<polygon fill="black" stroke="black" points="257.854,-125.488 259.76,-135.91 264.769,-126.574 257.854,-125.488"/>
</g>
<!-- 001011 -->
<g id="node59" class="node"><title>001011</title>
<ellipse fill="none" stroke="black" cx="274.89" cy="-648.59" rx="37.0935" ry="18"/>
<text text-anchor="middle" x="274.89" y="-644.89" font-family="Times,serif" font-size="14.00">001011</text>
</g>
<!-- 001011&#45;&#45;101010 -->
<g id="edge59" class="edge"><title>001011&#45;&#45;101010</title>
<path fill="none" stroke="black" d="M287.49,-665.79C292.87,-673.13 299.26,-681.86 305.17,-689.92"/>
<polygon fill="black" stroke="black" points="302.361,-692.009 311.1,-698 308.005,-687.867 302.361,-692.009"/>
</g>
<!-- 111110 -->
<g id="node60" class="node"><title>111110</title>
<ellipse fill="none" stroke="black" cx="339.05" cy="-143.49" rx="37.0935" ry="18"/>
<text text-anchor="middle" x="339.05" y="-139.79" font-family="Times,serif" font-size="14.00">111110</text>
</g>
<!-- 111110&#45;&#45;111111 -->
<g id="edge60" class="edge"><title>111110&#45;&#45;111111</title>
<path fill="none" stroke="black" d="M302.78,-148.15C302.68,-148.16 302.58,-148.17 302.47,-148.19"/>
<polygon fill="black" stroke="black" points="302.414,-144.668 292.94,-149.41 303.303,-151.612 302.414,-144.668"/>
</g>
<!-- 100001 -->
<g id="node61" class="node"><title>100001</title>
<ellipse fill="none" stroke="black" cx="1071.6" cy="-599.32" rx="37.0935" ry="18"/>
<text text-anchor="middle" x="1071.6" y="-595.62" font-family="Times,serif" font-size="14.00">100001</text>
</g>
<!-- 100001&#45;&#45;000000 -->
<g id="edge61" class="edge"><title>100001&#45;&#45;000000</title>
<path fill="none" stroke="black" d="M1052.8,-615.1C1047.1,-619.85 1040.8,-625.16 1034.7,-630.26"/>
<polygon fill="black" stroke="black" points="1032.08,-627.892 1026.7,-637.02 1036.6,-633.239 1032.08,-627.892"/>
</g>
<!-- 010000 -->
<g id="node62" class="node"><title>010000</title>
<ellipse fill="none" stroke="black" cx="1041.4" cy="-863.61" rx="37.0935" ry="18"/>
<text text-anchor="middle" x="1041.4" y="-859.91" font-family="Times,serif" font-size="14.00">010000</text>
</g>
<!-- 010000&#45;&#45;100111 -->
<g id="edge62" class="edge"><title>010000&#45;&#45;100111</title>
<path fill="none" stroke="black" d="M1039.8,-845.5C1039.1,-836.53 1038.1,-825.48 1037.2,-815.43"/>
<polygon fill="black" stroke="black" points="1040.68,-815.086 1036.3,-805.44 1033.71,-815.714 1040.68,-815.086"/>
</g>
<!-- 101100 -->
<g id="node63" class="node"><title>101100</title>
<ellipse fill="none" stroke="black" cx="391.05" cy="-313" rx="37.0935" ry="18"/>
<text text-anchor="middle" x="391.05" y="-309.3" font-family="Times,serif" font-size="14.00">101100</text>
</g>
<!-- 101100&#45;&#45;101100 -->
<g id="edge63" class="edge"><title>101100&#45;&#45;101100</title>
<path fill="none" stroke="black" d="M425.45,-319.75C436.92,-319.75 446.09,-317.5 446.09,-313 446.09,-309.98 441.95,-307.97 435.76,-306.98"/>
<polygon fill="black" stroke="black" points="435.672,-303.465 425.45,-306.25 435.178,-310.448 435.672,-303.465"/>
</g>
<!-- 111011 -->
<g id="node64" class="node"><title>111011</title>
<ellipse fill="none" stroke="black" cx="1003.3" cy="-171.03" rx="37.0935" ry="18"/>
<text text-anchor="middle" x="1003.3" y="-167.33" font-family="Times,serif" font-size="14.00">111011</text>
</g>
<!-- 111011&#45;&#45;011111 -->
<g id="edge64" class="edge"><title>111011&#45;&#45;011111</title>
<path fill="none" stroke="black" d="M979.28,-157.29C975.16,-154.93 970.83,-152.45 966.53,-149.98"/>
<polygon fill="black" stroke="black" points="968.256,-146.935 957.84,-145 964.776,-153.009 968.256,-146.935"/>
</g>
</g>
</svg>
